<svg xmlns="http://www.w3.org/2000/svg" viewBox="0 0 24 24" fill="currentColor">
  <path d="M12 0C5.373 0 0 5.373 0 12c0 5.303 3.438 9.8 8.205 11.387.6.113.82-.258.82-.577
    0-.285-.01-1.04-.015-2.04-3.338.724-4.042-1.61-4.042-1.61-.546-1.387-1.333-1.757-1.333-1.757
    -1.09-.745.083-.729.083-.729 1.205.085 1.838 1.236 1.838 1.236 1.07 1.835 2.807 1.305
    3.492.998.108-.776.418-1.305.762-1.605-2.665-.3-5.466-1.332-5.466-5.93 0-1.31.465-2.38
    1.235-3.22-.135-.303-.54-1.523.105-3.176 0 0 1.005-.322 3.3 1.23A11.5 11.5 0 0 1 12
    5.803c1.02.005 2.047.138 3.006.404 2.29-1.552 3.297-1.23 3.297-1.23.645 1.653.24 2.873.12
    3.176.765.84 1.23 1.91 1.23 3.22 0 4.61-2.807 5.625-5.48 5.92.43.372.823 1.102.823
    2.222 0 1.606-.015 2.898-.015 3.293 0 .322.216.694.825.576C20.565 21.796 24 17.3 24
    12c0-6.627-5.373-12-12-12z"/>
</svg>
